<?xml version="1.0" encoding="UTF-8"?><svg id="Layer_1" xmlns="http://www.w3.org/2000/svg" xmlns:xlink="http://www.w3.org/1999/xlink" viewBox="0 0 870.24 949.37"><defs><style>.cls-1{fill:url(#linear-gradient);}.cls-1,.cls-2{fill-rule:evenodd;}.cls-2{fill:url(#linear-gradient-2);}</style><linearGradient id="linear-gradient" x1="0" y1="474.68" x2="870.24" y2="474.68" gradientUnits="userSpaceOnUse"><stop offset="0" stop-color="#ffb352"/><stop offset=".18" stop-color="#fba952"/><stop offset=".48" stop-color="#f29052"/><stop offset=".87" stop-color="#e46754"/></linearGradient><linearGradient id="linear-gradient-2" x1="442.09" y1="53.34" x2="507.64" y2="53.34" xlink:href="#linear-gradient"/></defs><path class="cls-1" d="m268.46,633.15c-114.36-11.16-214.07,39.75-268.46,165.96,86.47-29.98,179.91-9.76,281.71,61.36,120.63,85.77,241.27,103.2,341.68,78.8,145.74-35.56,246.85-163.87,246.85-286.59,0-92.74-41.14-144.34-99.02-177.81-74.61-43.23-284.5-75.31-320.06-121.33-18.13-23.71-18.83-70.43,16.74-71.82,46.02-2.09,122.73,29.29,143.65-24.41-34.17,39.05-92.74,11.85-135.28,2.79-133.88-29.29-163.17,122.03-177.81,228.02,14.64-11.85,48.81-21.62,56.48-24.41-16.04,48.81-34.17,103.9-15.34,170.84,1.39-12.55,6.28-20.22,11.85-27.89,16.04,35.56,53.69,54.39,75.31,63.45v-54.39h64.15v80.19c10.46,3.49,20.92,6.28,32.08,9.07v-136.67h64.85v142.95c10.46,0,21.62,0,32.08-1.39v-213.38h64.15v199.43c13.95-4.88,27.89-11.16,39.75-18.13-62.76,57.88-147.13,57.18-230.81,35.56-67.64-17.43-171.54-74.61-224.53-80.19h0ZM406.53,60.67c-27.19-2.09-55.09.7-67.64,7.67,20.22-32.08,63.45-46.02,83.68-46.72,0,2.09-16.04,39.05-16.04,39.05h0Zm-144.34,563.42c-25.1-92.04-12.55-185.48,36.26-253.12-27.19,2.09-48.81,9.06-65.55,20.92,6.97-45.32,39.05-82.28,96.93-110.87-23.71,0-46.02,2.79-67.64,9.07,9.76-35.56,41.84-59.97,96.23-72.52-9.06-13.95-25.8-25.1-50.9-34.17,79.49-59.97,148.53,40.44,230.11,59.97,40.44,9.76,46.72-23.01,56.48-8.37,4.18,5.58,9.76,9.76,18.13,13.25,9.76-6.97,13.95-18.13,13.95-34.17l-76.01-30.68c-6.28-23.71-6.97-34.17-10.46-43.93-14.64-36.26-74.61-67.64-109.48-76.7L450.46,0C214.07,6.97,73.91,423.96,262.19,624.09h0Zm184.09-485.33c8.37,18.83,29.29,28.59,48.81,23.71-2.79-9.76-9.76-18.83-18.83-23.01-9.06-4.88-20.22-4.88-29.98-.7h0Z"/><path class="cls-2" d="m486.02,73.91c-17.43-11.16-34.17-15.34-43.93-19.52,17.43-16.04,41.84-21.62,65.55-21.62-.7,1.39-21.62,41.14-21.62,41.14h0Z"/></svg>